<svg xmlns="http://www.w3.org/2000/svg" xmlns:xlink="http://www.w3.org/1999/xlink" width="793" zoomAndPan="magnify" viewBox="0 0 595.5 842.249979" height="1122" preserveAspectRatio="xMidYMid meet" version="1.0"><defs><clipPath id="6561a4279e"><path d="M 22 54 L 578 54 L 578 785 L 22 785 Z M 22 54 " clip-rule="nonzero"/></clipPath><clipPath id="1e650c79b1"><path d="M 43.042969 100.847656 L 44.390625 100.847656 L 44.390625 116.585938 L 43.042969 116.585938 Z M 36.308594 100.847656 L 37.65625 100.847656 L 37.65625 116.585938 L 36.308594 116.585938 Z M 72.457031 63.796875 L 86.105469 63.796875 L 86.105469 65.144531 L 72.457031 65.144531 Z M 72.457031 70.535156 L 86.105469 70.535156 L 86.105469 71.882812 L 72.457031 71.882812 Z M 32.042969 100.285156 C 32.941406 99.386719 33.726562 98.488281 34.398438 97.480469 C 35.632812 97.480469 37.207031 96.691406 39.113281 94.785156 C 40.910156 92.988281 41.921875 91.078125 42.59375 88.835938 C 46.1875 88.160156 50.566406 87.9375 55.730469 88.160156 L 56.742188 88.160156 L 55.84375 87.261719 L 53.933594 87.261719 C 49.667969 87.148438 45.964844 87.375 42.707031 87.9375 C 42.929688 87.039062 43.042969 86.140625 43.15625 85.128906 C 45.402344 84.90625 48.433594 84.792969 52.25 84.90625 L 53.484375 84.90625 L 52.585938 84.007812 L 47.085938 84.007812 C 45.738281 84.007812 44.390625 84.007812 43.15625 84.117188 C 43.269531 82.996094 43.269531 81.648438 43.269531 80.1875 L 43.269531 74.6875 L 42.371094 73.789062 L 42.371094 75.023438 C 42.59375 78.84375 42.484375 81.761719 42.257812 84.117188 C 41.246094 84.230469 40.238281 84.34375 39.453125 84.566406 C 40.011719 81.425781 40.238281 77.71875 40.125 73.339844 L 40.125 71.542969 L 39.226562 70.648438 L 39.226562 71.65625 C 39.453125 76.820312 39.226562 81.199219 38.554688 84.792969 C 36.195312 85.355469 34.398438 86.476562 32.601562 88.160156 C 30.695312 90.070312 29.910156 91.640625 29.910156 92.875 C 28.898438 93.550781 28 94.335938 27.101562 95.234375 C 22.273438 100.0625 22.5 103.203125 23.285156 103.878906 C 24.070312 104.890625 27.214844 105.113281 32.042969 100.285156 Z M 38.554688 94.109375 C 37.316406 95.347656 36.082031 96.132812 35.074219 96.355469 C 36.421875 94.449219 37.429688 92.316406 38.214844 89.730469 C 39.226562 89.394531 40.238281 89.171875 41.359375 88.945312 C 40.796875 91.527344 39.789062 92.875 38.554688 94.109375 Z M 39.339844 85.691406 C 40.125 85.464844 41.136719 85.242188 42.257812 85.128906 C 42.144531 86.253906 41.921875 87.148438 41.808594 88.046875 C 40.6875 88.273438 39.675781 88.496094 38.664062 88.835938 C 38.890625 87.824219 39.226562 86.8125 39.339844 85.691406 Z M 33.390625 88.835938 C 34.625 87.597656 35.972656 86.589844 38.554688 85.914062 C 38.328125 87.039062 38.105469 88.046875 37.765625 89.058594 C 35.296875 89.84375 33.050781 90.96875 31.253906 92.316406 C 31.367188 91.304688 32.152344 90.179688 33.390625 88.835938 Z M 37.316406 90.070312 C 36.421875 92.539062 35.296875 94.671875 33.949219 96.46875 C 33.050781 96.46875 32.378906 96.132812 31.816406 95.570312 C 31.253906 95.007812 30.917969 94.222656 30.917969 93.4375 C 32.828125 92.089844 34.960938 90.96875 37.316406 90.070312 Z M 27.664062 96.242188 C 28.449219 95.457031 29.234375 94.785156 30.132812 94.109375 C 30.355469 95.007812 30.804688 95.683594 31.253906 96.242188 C 31.703125 96.691406 32.378906 97.253906 33.390625 97.367188 C 32.714844 98.265625 32.042969 99.050781 31.253906 99.835938 C 27.101562 103.992188 24.519531 103.765625 24.070312 103.316406 C 23.734375 102.980469 23.507812 100.398438 27.664062 96.242188 Z M 42.035156 71.65625 C 46.300781 71.769531 50.003906 71.542969 53.261719 70.984375 C 53.035156 71.882812 52.921875 72.78125 52.8125 73.789062 C 50.453125 74.015625 47.535156 74.125 43.71875 73.902344 L 42.484375 73.902344 L 43.378906 74.800781 L 48.882812 74.800781 C 50.230469 74.800781 51.578125 74.800781 52.8125 74.6875 C 52.699219 75.8125 52.699219 77.15625 52.699219 78.617188 L 52.699219 84.117188 L 53.597656 85.015625 L 53.597656 83.78125 C 53.484375 79.964844 53.484375 76.933594 53.820312 74.6875 C 54.832031 74.574219 55.730469 74.464844 56.628906 74.238281 C 56.066406 77.496094 55.84375 81.199219 55.953125 85.464844 L 55.953125 87.375 L 56.851562 88.273438 L 56.851562 87.261719 C 56.628906 82.097656 56.851562 77.832031 57.527344 74.125 C 59.773438 73.566406 61.679688 72.441406 63.476562 70.648438 C 65.386719 68.738281 66.171875 67.167969 66.171875 65.929688 C 67.183594 65.257812 68.082031 64.472656 68.976562 63.574219 C 73.695312 58.632812 73.46875 55.488281 72.683594 54.816406 C 71.898438 54.03125 68.867188 53.804688 64.039062 58.632812 C 63.140625 59.53125 62.355469 60.429688 61.679688 61.441406 C 60.445312 61.441406 58.875 62.226562 56.964844 64.136719 C 55.167969 65.929688 54.160156 67.726562 53.597656 70.085938 C 50.003906 70.757812 45.625 70.984375 40.460938 70.757812 L 39.453125 70.757812 L 40.347656 71.65625 Z M 62.691406 69.972656 C 61.570312 71.09375 60.109375 72.21875 57.527344 72.890625 C 57.75 71.769531 57.976562 70.648438 58.3125 69.75 C 60.894531 68.960938 63.027344 67.839844 64.9375 66.605469 C 64.710938 67.613281 63.925781 68.738281 62.691406 69.972656 Z M 64.824219 59.082031 C 68.976562 54.929688 71.558594 55.152344 72.007812 55.601562 C 72.347656 55.9375 72.683594 58.519531 68.527344 62.789062 C 67.742188 63.574219 66.957031 64.246094 66.058594 64.921875 C 65.835938 64.023438 65.386719 63.347656 64.9375 62.789062 C 64.488281 62.339844 63.8125 61.777344 62.804688 61.664062 C 63.363281 60.65625 64.039062 59.867188 64.824219 59.082031 Z M 62.015625 62.339844 C 62.914062 62.339844 63.589844 62.675781 64.152344 63.238281 C 64.710938 63.796875 65.046875 64.472656 65.046875 65.371094 C 63.253906 66.71875 61.121094 67.839844 58.648438 68.738281 C 59.546875 66.378906 60.671875 64.246094 62.015625 62.339844 Z M 57.414062 64.808594 C 58.648438 63.574219 59.882812 62.789062 60.78125 62.5625 C 59.433594 64.359375 58.425781 66.605469 57.527344 69.074219 C 56.515625 69.410156 55.507812 69.636719 54.382812 69.859375 C 55.167969 67.390625 56.292969 66.042969 57.414062 64.808594 Z M 54.269531 70.757812 C 55.394531 70.535156 56.402344 70.308594 57.414062 70.085938 C 57.078125 71.09375 56.851562 72.21875 56.628906 73.230469 C 55.730469 73.453125 54.832031 73.566406 53.710938 73.679688 C 53.820312 72.554688 54.046875 71.65625 54.269531 70.757812 Z M 43.042969 116.585938 L 44.390625 116.585938 L 44.390625 722.46875 L 43.042969 722.46875 Z M 36.308594 116.585938 L 37.65625 116.585938 L 37.65625 722.46875 L 36.308594 722.46875 Z M 72.457031 770.746094 L 86.105469 770.746094 L 86.105469 772.09375 L 72.457031 772.09375 Z M 72.457031 764.121094 L 86.105469 764.121094 L 86.105469 765.46875 L 72.457031 765.46875 Z M 43.042969 722.46875 L 44.390625 722.46875 L 44.390625 736.164062 L 43.042969 736.164062 Z M 36.308594 722.46875 L 37.65625 722.46875 L 37.65625 736.164062 L 36.308594 736.164062 Z M 39.339844 768.949219 L 40.238281 768.050781 L 40.238281 766.140625 C 40.347656 761.875 40.125 758.171875 39.5625 754.914062 C 40.460938 755.140625 41.359375 755.25 42.371094 755.363281 C 42.59375 757.722656 42.707031 760.640625 42.484375 764.457031 L 42.484375 765.691406 L 43.378906 764.792969 L 43.378906 759.292969 C 43.378906 757.945312 43.378906 756.597656 43.269531 755.363281 C 44.390625 755.476562 45.738281 755.476562 47.199219 755.476562 L 52.699219 755.476562 L 53.597656 754.578125 L 52.363281 754.578125 C 48.546875 754.691406 45.515625 754.691406 43.269531 754.351562 C 43.15625 753.34375 43.042969 752.445312 42.820312 751.546875 C 46.074219 752.109375 49.78125 752.332031 54.046875 752.21875 L 55.953125 752.21875 L 56.851562 751.324219 L 55.84375 751.324219 C 50.679688 751.546875 46.410156 751.324219 42.707031 750.648438 C 42.144531 748.402344 41.023438 746.496094 39.226562 744.699219 C 37.316406 742.789062 35.746094 742.003906 34.511719 742.003906 C 33.835938 740.992188 33.050781 740.09375 32.152344 739.195312 C 27.324219 734.371094 24.183594 734.59375 23.507812 735.378906 C 22.722656 736.164062 22.5 739.195312 27.324219 744.023438 C 28.222656 744.921875 29.121094 745.707031 30.132812 746.382812 C 30.132812 747.617188 30.917969 749.1875 32.828125 751.097656 C 34.625 752.894531 36.421875 753.90625 38.777344 754.464844 C 39.453125 758.058594 39.675781 762.4375 39.453125 767.601562 Z M 38.554688 745.597656 C 39.675781 746.71875 40.796875 748.179688 41.472656 750.761719 C 40.347656 750.535156 39.226562 750.3125 38.328125 749.976562 C 37.542969 747.394531 36.421875 745.257812 35.183594 743.351562 C 36.195312 743.574219 37.316406 744.363281 38.554688 745.597656 Z M 27.664062 743.464844 C 23.507812 739.308594 23.734375 736.726562 24.183594 736.277344 C 24.519531 735.941406 27.101562 735.605469 31.367188 739.757812 C 32.152344 740.542969 32.828125 741.332031 33.5 742.226562 C 32.601562 742.453125 31.929688 742.902344 31.367188 743.351562 C 30.917969 743.914062 30.355469 744.585938 30.246094 745.484375 C 29.234375 744.921875 28.449219 744.25 27.664062 743.464844 Z M 31.816406 744.023438 C 32.378906 743.464844 33.050781 743.125 33.949219 743.125 C 35.296875 745.035156 36.421875 747.054688 37.316406 749.527344 C 34.847656 748.628906 32.714844 747.617188 30.917969 746.15625 C 30.917969 745.371094 31.253906 744.585938 31.816406 744.023438 Z M 33.390625 750.875 C 32.152344 749.636719 31.367188 748.402344 31.144531 747.503906 C 32.941406 748.851562 35.183594 749.863281 37.65625 750.761719 C 37.992188 751.769531 38.214844 752.78125 38.441406 753.90625 C 35.972656 753.117188 34.625 751.996094 33.390625 750.875 Z M 39.339844 754.015625 C 39.113281 752.894531 38.890625 751.882812 38.664062 750.875 C 39.675781 751.210938 40.796875 751.433594 41.808594 751.660156 C 42.035156 752.558594 42.144531 753.457031 42.257812 754.578125 C 41.136719 754.464844 40.238281 754.242188 39.339844 754.015625 Z M 66.058594 773.886719 C 66.058594 772.652344 65.273438 771.082031 63.363281 769.171875 C 61.570312 767.375 59.660156 766.367188 57.414062 765.691406 C 56.742188 762.101562 56.515625 757.722656 56.742188 752.558594 L 56.742188 751.546875 L 55.84375 752.445312 L 55.84375 754.242188 C 55.730469 758.507812 55.953125 762.210938 56.515625 765.46875 C 55.617188 765.242188 54.71875 765.132812 53.710938 765.019531 C 53.484375 762.773438 53.371094 759.742188 53.484375 755.925781 L 53.484375 754.691406 L 52.585938 755.589844 L 52.585938 761.089844 C 52.585938 762.550781 52.585938 763.785156 52.699219 765.019531 C 51.578125 764.90625 50.230469 764.90625 48.769531 764.90625 L 43.269531 764.90625 L 42.371094 765.804688 L 43.605469 765.804688 C 47.421875 765.582031 50.339844 765.691406 52.699219 765.917969 C 52.8125 766.929688 52.921875 767.9375 53.148438 768.722656 C 50.003906 768.164062 46.300781 767.9375 41.921875 768.050781 L 40.011719 768.050781 L 39.113281 768.949219 L 40.125 768.949219 C 45.289062 768.722656 49.667969 768.949219 53.261719 769.621094 C 53.820312 771.980469 54.945312 773.777344 56.628906 775.574219 C 58.539062 777.480469 60.109375 778.265625 61.34375 778.265625 C 62.015625 779.277344 62.804688 780.175781 63.703125 781.074219 C 68.527344 785.902344 71.671875 785.675781 72.347656 784.890625 C 73.132812 784.105469 73.355469 781.074219 68.527344 776.246094 C 67.96875 775.460938 67.070312 774.5625 66.058594 773.886719 Z M 62.691406 769.734375 C 63.925781 770.96875 64.710938 772.203125 64.9375 773.214844 C 63.027344 771.867188 60.894531 770.855469 58.3125 770.070312 C 57.976562 769.0625 57.75 768.050781 57.527344 766.929688 C 60.109375 767.488281 61.457031 768.5 62.691406 769.734375 Z M 53.710938 766.03125 C 54.832031 766.140625 55.730469 766.367188 56.628906 766.480469 C 56.851562 767.601562 57.078125 768.613281 57.414062 769.621094 C 56.402344 769.398438 55.394531 769.0625 54.269531 768.949219 C 54.046875 768.050781 53.820312 767.152344 53.710938 766.03125 Z M 60.78125 777.144531 C 59.882812 776.808594 58.648438 776.132812 57.414062 774.898438 C 56.179688 773.664062 55.167969 772.316406 54.496094 769.734375 C 55.617188 769.960938 56.628906 770.183594 57.640625 770.519531 C 58.425781 773.101562 59.546875 775.347656 60.78125 777.144531 Z M 58.648438 770.96875 C 61.121094 771.867188 63.253906 772.992188 65.046875 774.335938 C 65.046875 775.234375 64.710938 775.910156 64.152344 776.472656 C 63.589844 777.03125 62.804688 777.367188 62.015625 777.367188 C 60.671875 775.460938 59.546875 773.328125 58.648438 770.96875 Z M 71.898438 784.21875 C 71.558594 784.554688 68.976562 784.890625 64.710938 780.738281 C 63.925781 779.949219 63.253906 779.164062 62.578125 778.265625 C 63.476562 778.042969 64.152344 777.59375 64.710938 777.144531 C 65.160156 776.695312 65.722656 776.023438 65.835938 775.011719 C 66.734375 775.683594 67.519531 776.359375 68.304688 777.144531 C 72.570312 781.1875 72.234375 783.769531 71.898438 784.21875 Z M 85.90625 770.746094 L 516.898438 770.746094 L 516.898438 772.09375 L 85.90625 772.09375 Z M 85.90625 764.121094 L 516.898438 764.121094 L 516.898438 765.46875 L 85.90625 765.46875 Z M 516.898438 770.746094 L 528.011719 770.746094 L 528.011719 772.09375 L 516.898438 772.09375 Z M 516.898438 764.121094 L 528.011719 764.121094 L 528.011719 765.46875 L 516.898438 765.46875 Z M 562.816406 722.46875 L 564.160156 722.46875 L 564.160156 736.164062 L 562.816406 736.164062 Z M 556.191406 722.46875 L 557.539062 722.46875 L 557.539062 736.164062 L 556.191406 736.164062 Z M 568.539062 739.421875 C 567.640625 740.320312 566.855469 741.21875 566.183594 742.226562 C 564.949219 742.226562 563.375 743.015625 561.46875 744.921875 C 559.671875 746.71875 558.660156 748.628906 557.988281 750.875 C 554.394531 751.546875 550.015625 751.769531 544.851562 751.546875 L 543.839844 751.546875 L 544.738281 752.445312 L 546.648438 752.445312 C 550.914062 752.558594 554.621094 752.332031 557.875 751.769531 C 557.652344 752.667969 557.539062 753.566406 557.425781 754.578125 C 555.179688 754.800781 552.148438 754.914062 548.332031 754.800781 L 547.097656 754.800781 L 547.996094 755.699219 L 553.496094 755.699219 C 554.84375 755.699219 556.191406 755.699219 557.425781 755.589844 C 557.3125 756.710938 557.3125 758.058594 557.3125 759.519531 L 557.3125 765.019531 L 558.210938 765.917969 L 558.210938 764.683594 C 557.988281 760.863281 558.097656 757.945312 558.324219 755.589844 C 559.335938 755.476562 560.34375 755.363281 561.128906 755.140625 C 560.570312 758.28125 560.34375 761.988281 560.457031 766.367188 L 560.457031 768.273438 L 561.355469 769.171875 L 561.355469 768.164062 C 561.128906 763 561.355469 758.621094 562.027344 755.027344 C 564.386719 754.464844 566.183594 753.34375 567.980469 751.660156 C 569.886719 749.75 570.671875 748.179688 570.671875 746.945312 C 571.683594 746.269531 572.582031 745.484375 573.480469 744.585938 C 578.308594 739.757812 578.082031 736.726562 577.296875 735.941406 C 576.398438 734.820312 573.367188 734.59375 568.539062 739.421875 Z M 561.917969 745.597656 C 563.152344 744.363281 564.386719 743.574219 565.398438 743.351562 C 564.050781 745.257812 563.039062 747.394531 562.253906 749.976562 C 561.242188 750.3125 560.234375 750.535156 559.109375 750.761719 C 559.671875 748.179688 560.792969 746.832031 561.917969 745.597656 Z M 561.128906 754.015625 C 560.34375 754.242188 559.335938 754.464844 558.210938 754.578125 C 558.324219 753.457031 558.546875 752.558594 558.660156 751.660156 C 559.785156 751.433594 560.792969 751.210938 561.804688 750.875 C 561.578125 751.882812 561.355469 752.894531 561.128906 754.015625 Z M 567.195312 750.875 C 565.957031 752.109375 564.609375 753.117188 562.027344 753.792969 C 562.253906 752.667969 562.476562 751.660156 562.816406 750.648438 C 565.285156 749.863281 567.53125 748.738281 569.328125 747.394531 C 569.101562 748.402344 568.429688 749.527344 567.195312 750.875 Z M 563.152344 749.636719 C 564.050781 747.167969 565.171875 745.035156 566.519531 743.238281 C 567.417969 743.238281 568.089844 743.574219 568.652344 744.136719 C 569.214844 744.699219 569.550781 745.484375 569.550781 746.269531 C 567.753906 747.617188 565.621094 748.738281 563.152344 749.636719 Z M 572.917969 743.464844 C 572.132812 744.25 571.347656 744.921875 570.449219 745.597656 C 570.226562 744.699219 569.777344 744.023438 569.328125 743.464844 C 568.878906 743.015625 568.203125 742.453125 567.195312 742.339844 C 567.867188 741.441406 568.539062 740.65625 569.328125 739.871094 C 573.480469 735.71875 576.0625 735.941406 576.511719 736.390625 C 576.738281 736.726562 577.074219 739.308594 572.917969 743.464844 Z M 558.546875 768.050781 C 554.28125 767.9375 550.578125 768.164062 547.320312 768.722656 C 547.546875 767.824219 547.660156 766.929688 547.769531 765.917969 C 550.128906 765.691406 553.046875 765.582031 556.863281 765.804688 L 558.097656 765.804688 L 557.203125 764.90625 L 551.699219 764.90625 C 550.351562 764.90625 549.003906 764.90625 547.769531 765.019531 C 547.882812 763.898438 547.882812 762.550781 547.882812 761.089844 L 547.882812 755.589844 L 546.984375 754.691406 L 546.984375 755.925781 C 547.097656 759.742188 547.097656 762.773438 546.761719 765.019531 C 545.75 765.132812 544.851562 765.242188 543.953125 765.46875 C 544.515625 762.210938 544.738281 758.507812 544.628906 754.242188 L 544.628906 752.445312 L 543.730469 751.546875 L 543.730469 752.558594 C 543.953125 757.722656 543.730469 761.988281 543.054688 765.691406 C 540.808594 766.253906 538.902344 767.375 537.105469 769.171875 C 535.195312 771.082031 534.410156 772.652344 534.410156 773.886719 C 533.398438 774.5625 532.503906 775.347656 531.605469 776.246094 C 526.777344 781.074219 527 784.21875 527.785156 784.890625 C 528.574219 785.675781 531.605469 785.902344 536.429688 781.074219 C 537.328125 780.175781 538.117188 779.277344 538.789062 778.265625 C 540.023438 778.265625 541.597656 777.480469 543.503906 775.574219 C 545.300781 773.777344 546.3125 771.980469 546.871094 769.621094 C 550.464844 768.949219 554.84375 768.722656 560.007812 768.949219 L 561.019531 768.949219 L 560.121094 768.050781 Z M 537.890625 769.734375 C 539.125 768.613281 540.472656 767.488281 543.054688 766.816406 C 542.832031 767.9375 542.605469 769.0625 542.269531 769.960938 C 539.6875 770.746094 537.554688 771.867188 535.644531 773.101562 C 535.871094 772.09375 536.65625 770.96875 537.890625 769.734375 Z M 535.757812 780.625 C 531.605469 784.777344 529.023438 784.554688 528.574219 784.105469 C 528.234375 783.769531 527.898438 781.1875 532.054688 776.917969 C 532.839844 776.132812 533.625 775.460938 534.523438 774.785156 C 534.746094 775.683594 535.195312 776.359375 535.644531 776.917969 C 536.09375 777.367188 536.769531 777.929688 537.777344 778.042969 C 537.21875 779.054688 536.542969 779.839844 535.757812 780.625 Z M 538.566406 777.367188 C 537.667969 777.367188 536.992188 777.03125 536.429688 776.472656 C 535.871094 775.910156 535.535156 775.234375 535.535156 774.335938 C 537.441406 772.878906 539.460938 771.867188 541.933594 770.96875 C 541.035156 773.328125 539.910156 775.460938 538.566406 777.367188 Z M 543.054688 774.898438 C 541.820312 776.132812 540.585938 776.917969 539.6875 777.144531 C 541.035156 775.347656 542.046875 773.101562 542.941406 770.632812 C 543.953125 770.296875 544.964844 770.070312 546.085938 769.847656 C 545.300781 772.316406 544.289062 773.664062 543.054688 774.898438 Z M 546.3125 768.949219 C 545.1875 769.171875 544.179688 769.398438 543.167969 769.621094 C 543.503906 768.613281 543.730469 767.488281 543.953125 766.480469 C 544.851562 766.253906 545.75 766.140625 546.871094 766.03125 C 546.648438 767.152344 546.535156 768.050781 546.3125 768.949219 Z M 562.816406 116.585938 L 564.160156 116.585938 L 564.160156 722.46875 L 562.816406 722.46875 Z M 556.191406 116.585938 L 557.539062 116.585938 L 557.539062 722.46875 L 556.191406 722.46875 Z M 562.816406 100.847656 L 564.160156 100.847656 L 564.160156 116.585938 L 562.816406 116.585938 Z M 556.191406 100.847656 L 557.539062 100.847656 L 557.539062 116.585938 L 556.191406 116.585938 Z M 516.898438 63.796875 L 528.011719 63.796875 L 528.011719 65.144531 L 516.898438 65.144531 Z M 516.898438 70.535156 L 528.011719 70.535156 L 528.011719 71.882812 L 516.898438 71.882812 Z M 561.242188 70.757812 L 560.34375 71.65625 L 560.34375 73.453125 C 560.234375 77.71875 560.457031 81.425781 561.019531 84.679688 C 560.121094 84.457031 559.222656 84.34375 558.210938 84.230469 C 557.988281 81.875 557.875 78.953125 558.097656 75.136719 L 558.097656 73.902344 L 557.203125 74.800781 L 557.203125 80.300781 C 557.203125 81.648438 557.203125 82.996094 557.3125 84.230469 C 556.191406 84.117188 554.84375 84.117188 553.382812 84.117188 L 547.882812 84.117188 L 546.984375 85.015625 L 548.21875 85.015625 C 552.035156 84.90625 555.066406 84.90625 557.3125 85.242188 C 557.425781 86.253906 557.539062 87.148438 557.761719 88.046875 C 554.507812 87.488281 550.800781 87.261719 546.535156 87.375 L 544.628906 87.375 L 543.730469 88.273438 L 544.738281 88.273438 C 549.902344 88.046875 554.171875 88.273438 557.875 88.945312 C 558.4375 91.191406 559.558594 93.101562 561.355469 94.898438 C 563.265625 96.804688 564.835938 97.589844 566.070312 97.589844 C 566.746094 98.601562 567.53125 99.5 568.429688 100.398438 C 573.257812 105.226562 576.289062 105 577.074219 104.214844 C 577.859375 103.429688 578.082031 100.398438 573.257812 95.570312 C 572.359375 94.671875 571.460938 93.886719 570.449219 93.210938 C 570.449219 91.976562 569.664062 90.40625 567.753906 88.496094 C 565.957031 86.699219 564.160156 85.691406 561.804688 85.128906 C 561.128906 81.535156 560.90625 77.15625 561.128906 71.992188 Z M 561.917969 94.109375 C 560.683594 92.988281 559.671875 91.527344 558.996094 88.945312 C 560.121094 89.171875 561.242188 89.394531 562.140625 89.730469 C 562.925781 92.316406 563.9375 94.449219 565.285156 96.355469 C 564.386719 96.132812 563.265625 95.347656 561.917969 94.109375 Z M 572.917969 96.242188 C 577.074219 100.398438 576.847656 102.980469 576.398438 103.429688 C 576.0625 103.765625 573.480469 104.101562 569.214844 99.949219 C 568.429688 99.164062 567.753906 98.378906 567.082031 97.480469 C 567.980469 97.253906 568.652344 96.804688 569.214844 96.355469 C 569.777344 95.90625 570.226562 95.234375 570.335938 94.222656 C 571.347656 94.785156 572.132812 95.457031 572.917969 96.242188 Z M 568.652344 95.570312 C 568.089844 96.132812 567.417969 96.46875 566.519531 96.46875 C 565.171875 94.671875 564.050781 92.539062 563.152344 90.070312 C 565.621094 90.96875 567.753906 91.976562 569.550781 93.4375 C 569.664062 94.335938 569.214844 95.121094 568.652344 95.570312 Z M 567.195312 88.835938 C 568.429688 90.070312 569.214844 91.304688 569.4375 92.203125 C 567.640625 90.855469 565.398438 89.84375 562.925781 88.945312 C 562.589844 87.9375 562.367188 86.925781 562.140625 85.804688 C 564.609375 86.589844 565.957031 87.710938 567.195312 88.835938 Z M 561.128906 85.691406 C 561.355469 86.8125 561.578125 87.824219 561.804688 88.835938 C 560.792969 88.496094 559.671875 88.273438 558.660156 88.046875 C 558.4375 87.148438 558.324219 86.253906 558.210938 85.128906 C 559.335938 85.242188 560.34375 85.464844 561.128906 85.691406 Z M 534.523438 65.820312 C 534.523438 67.054688 535.308594 68.625 537.21875 70.535156 C 539.011719 72.332031 540.921875 73.339844 543.167969 74.015625 C 543.839844 77.605469 544.066406 81.984375 543.839844 87.148438 L 543.839844 88.160156 L 544.738281 87.261719 L 544.738281 85.355469 C 544.851562 81.085938 544.628906 77.382812 544.066406 74.125 C 544.964844 74.351562 545.863281 74.464844 546.871094 74.574219 C 547.097656 76.820312 547.210938 79.851562 547.097656 83.667969 L 547.097656 84.90625 L 547.996094 84.007812 L 547.996094 78.503906 C 547.996094 77.15625 547.996094 75.8125 547.882812 74.574219 C 549.117188 74.6875 550.351562 74.6875 551.8125 74.6875 L 557.3125 74.6875 L 558.210938 73.789062 L 556.976562 73.789062 C 553.160156 74.015625 550.242188 73.902344 547.882812 73.679688 C 547.769531 72.667969 547.660156 71.65625 547.433594 70.871094 C 550.578125 71.433594 554.28125 71.65625 558.660156 71.542969 L 560.570312 71.542969 L 561.46875 70.648438 L 560.457031 70.648438 C 555.292969 70.871094 550.914062 70.648438 547.320312 69.972656 C 546.761719 67.613281 545.75 65.820312 543.953125 64.023438 C 542.046875 62.113281 540.472656 61.328125 539.238281 61.328125 C 538.566406 60.316406 537.777344 59.417969 536.878906 58.519531 C 532.054688 53.695312 529.023438 53.917969 528.234375 54.703125 C 527.449219 55.488281 527.226562 58.519531 532.054688 63.347656 C 532.613281 64.359375 533.511719 65.144531 534.523438 65.820312 Z M 537.890625 69.972656 C 536.65625 68.738281 535.871094 67.503906 535.644531 66.492188 C 537.554688 67.839844 539.6875 68.851562 542.269531 69.636719 C 542.605469 70.648438 542.832031 71.65625 543.054688 72.78125 C 540.472656 72.21875 539.011719 71.207031 537.890625 69.972656 Z M 546.761719 73.679688 C 545.636719 73.566406 544.738281 73.339844 543.839844 73.230469 C 543.617188 72.105469 543.390625 71.09375 543.054688 70.085938 C 544.066406 70.308594 545.078125 70.648438 546.199219 70.757812 C 546.535156 71.65625 546.648438 72.554688 546.761719 73.679688 Z M 539.6875 62.5625 C 540.585938 62.898438 541.820312 63.574219 543.054688 64.808594 C 544.289062 66.042969 545.300781 67.390625 545.972656 69.972656 C 544.851562 69.75 543.839844 69.523438 542.832031 69.1875 C 542.046875 66.605469 541.035156 64.359375 539.6875 62.5625 Z M 541.820312 68.738281 C 539.351562 67.839844 537.21875 66.71875 535.421875 65.371094 C 535.421875 64.472656 535.757812 63.796875 536.320312 63.238281 C 536.878906 62.675781 537.667969 62.339844 538.453125 62.339844 C 539.910156 64.246094 541.035156 66.378906 541.820312 68.738281 Z M 528.574219 55.488281 C 528.910156 55.152344 531.492188 54.816406 535.757812 58.96875 C 536.542969 59.757812 537.21875 60.542969 537.890625 61.441406 C 536.992188 61.664062 536.320312 62.113281 535.757812 62.5625 C 535.308594 63.011719 534.746094 63.6875 534.636719 64.695312 C 533.738281 64.023438 532.949219 63.347656 532.164062 62.5625 C 528.011719 58.519531 528.234375 55.9375 528.574219 55.488281 Z M 85.90625 63.796875 L 516.898438 63.796875 L 516.898438 65.144531 L 85.90625 65.144531 Z M 85.90625 70.535156 L 516.898438 70.535156 L 516.898438 71.882812 L 85.90625 71.882812 Z M 85.90625 70.535156 " clip-rule="nonzero"/></clipPath></defs><g clip-path="url(#6561a4279e)"><g clip-path="url(#1e650c79b1)"><path fill="#b7b095" d="M 22.949219 54.367188 L 577.632812 54.367188 L 577.632812 784.984375 L 22.949219 784.984375 Z M 22.949219 54.367188 " fill-opacity="1" fill-rule="nonzero"/></g></g></svg>