<svg xmlns="http://www.w3.org/2000/svg" xmlns:xlink="http://www.w3.org/1999/xlink" width="500" zoomAndPan="magnify" viewBox="0 0 375 374.999991" height="500" preserveAspectRatio="xMidYMid meet" version="1.0"><defs><filter x="0%" y="0%" width="100%" height="100%" id="754da4ddc2"><feColorMatrix values="0 0 0 0 1 0 0 0 0 1 0 0 0 0 1 0 0 0 1 0" color-interpolation-filters="sRGB"/></filter><g/><clipPath id="30f4f814bc"><path d="M 88 154.738281 L 99 154.738281 L 99 219.988281 L 88 219.988281 Z M 88 154.738281 " clip-rule="nonzero"/></clipPath><clipPath id="4ad23df5b3"><path d="M 102 154.738281 L 117 154.738281 L 117 219.988281 L 102 219.988281 Z M 102 154.738281 " clip-rule="nonzero"/></clipPath><mask id="56d823e361"><g filter="url(#754da4ddc2)"><rect x="-37.5" width="450" fill="#000000" y="-37.499999" height="449.999989" fill-opacity="0.3"/></g></mask><clipPath id="8c36e6a108"><path d="M 0.28125 0.761719 L 0.761719 0.761719 L 0.761719 1.480469 L 0.28125 1.480469 Z M 0.28125 0.761719 " clip-rule="nonzero"/></clipPath><clipPath id="65c5f2a936"><rect x="0" width="1" y="0" height="2"/></clipPath><mask id="c27299c411"><g filter="url(#754da4ddc2)"><rect x="-37.5" width="450" fill="#000000" y="-37.499999" height="449.999989" fill-opacity="0.3"/></g></mask><clipPath id="e5627167d4"><path d="M 0.71875 0.71875 L 6 0.71875 L 6 14.878906 L 0.71875 14.878906 Z M 0.71875 0.71875 " clip-rule="nonzero"/></clipPath><clipPath id="ba9d44eccc"><rect x="0" width="6" y="0" height="15"/></clipPath><mask id="cd0faa0bb4"><g filter="url(#754da4ddc2)"><rect x="-37.5" width="450" fill="#000000" y="-37.499999" height="449.999989" fill-opacity="0.3"/></g></mask><clipPath id="764296394c"><path d="M 0.28125 0.71875 L 5.558594 0.71875 L 5.558594 14.878906 L 0.28125 14.878906 Z M 0.28125 0.71875 " clip-rule="nonzero"/></clipPath><clipPath id="f4b9df3e69"><rect x="0" width="6" y="0" height="15"/></clipPath><clipPath id="580c537b0a"><path d="M 68.851562 187.5 L 118.351562 187.5 L 118.351562 204.75 L 68.851562 204.75 Z M 68.851562 187.5 " clip-rule="nonzero"/></clipPath><clipPath id="f70b877956"><path d="M 111 189 L 118.351562 189 L 118.351562 193 L 111 193 Z M 111 189 " clip-rule="nonzero"/></clipPath><clipPath id="d8d12a2044"><path d="M 68.851562 198 L 77 198 L 77 202 L 68.851562 202 Z M 68.851562 198 " clip-rule="nonzero"/></clipPath></defs><g clip-path="url(#30f4f814bc)"><path fill="#4d433a" d="M 91.980469 181.851562 C 91.980469 185.179688 88.785156 208.339844 90.59375 216.75 C 91.351562 220.265625 95.300781 219.808594 95.957031 216.75 C 97.628906 208.992188 94.636719 201.847656 94.636719 181.667969 C 94.636719 178.90625 96.769531 178.835938 97.921875 175.269531 C 98.953125 172.089844 97.5 154.949219 97.03125 154.949219 C 96.496094 154.949219 96.757812 169.792969 95.742188 169.792969 C 94.722656 169.792969 95.238281 155.148438 94.59375 154.949219 C 93.945312 154.746094 94.417969 169.792969 93.222656 169.792969 C 92.015625 169.792969 92.800781 154.949219 92.152344 154.949219 C 91.507812 154.949219 91.6875 169.792969 90.703125 169.792969 C 89.617188 169.792969 90.199219 154.949219 89.714844 154.949219 C 88.890625 154.949219 87.925781 171.066406 88.4375 174.472656 C 88.953125 177.878906 91.980469 178.523438 91.980469 181.851562 Z M 91.980469 181.851562 " fill-opacity="1" fill-rule="nonzero"/></g><g clip-path="url(#4ad23df5b3)"><path fill="#4d433a" d="M 108.378906 181.136719 C 108.378906 201.402344 105.125 209.640625 106.996094 216.792969 C 107.886719 220.203125 111.699219 219.800781 112.359375 216.792969 C 113.871094 209.863281 111.039062 200.992188 111.039062 181.136719 C 111.039062 178.828125 116.8125 179.222656 116.8125 171.324219 C 116.8125 161.4375 113.136719 154.894531 109.636719 154.894531 C 106.367188 154.894531 102.816406 162.070312 102.816406 171.324219 C 102.816406 178.742188 108.378906 179.234375 108.378906 181.136719 Z M 108.378906 181.136719 " fill-opacity="1" fill-rule="nonzero"/></g><path fill="#4d433a" d="M 77.695312 189.261719 C 77.695312 205.351562 74.4375 210.984375 76.308594 216.667969 C 77.199219 219.375 81.015625 219.054688 81.671875 216.667969 C 83.1875 211.164062 80.351562 207.125 80.351562 189.476562 C 80.351562 187.320312 83.527344 184.308594 83.527344 178.746094 C 83.527344 168.855469 82.085938 155.414062 78.949219 155.414062 C 75.941406 155.414062 76.628906 172.742188 76.628906 182.222656 C 76.628906 186.292969 77.695312 187.351562 77.695312 189.261719 Z M 77.695312 189.261719 " fill-opacity="1" fill-rule="nonzero"/><g mask="url(#56d823e361)"><g transform="matrix(1, 0, 0, 1, 89, 167)"><g clip-path="url(#65c5f2a936)"><g clip-path="url(#8c36e6a108)"><path fill="#4d433a" d="M 0.515625 1.203125 C 0.507812 1.308594 0.460938 1.382812 0.40625 1.371094 C 0.351562 1.355469 0.3125 1.261719 0.320312 1.15625 C 0.328125 1.054688 0.375 0.980469 0.429688 0.992188 C 0.484375 1.003906 0.523438 1.101562 0.515625 1.203125 Z M 0.515625 1.203125 " fill-opacity="0.777" fill-rule="nonzero"/></g></g></g></g><g mask="url(#c27299c411)"><g transform="matrix(1, 0, 0, 1, 90, 204)"><g clip-path="url(#ba9d44eccc)"><g clip-path="url(#e5627167d4)"><path fill="#4d433a" d="M 0.960938 12.640625 C 1.285156 14.097656 2.65625 15.121094 4.070312 14.457031 C 5.640625 13.722656 5.867188 11.289062 5.878906 9.972656 C 5.898438 7.632812 5.652344 5.902344 5.371094 3.613281 C 5.28125 2.902344 5.140625 1.578125 4.996094 0.925781 C 4.992188 2.769531 5.28125 4.558594 4.9375 6.394531 C 4.425781 8.117188 4.992188 11.269531 3.34375 12.425781 C 2.523438 12.996094 1.054688 11.863281 0.960938 12.640625 Z M 0.960938 12.640625 " fill-opacity="1" fill-rule="nonzero"/></g></g></g></g><g mask="url(#cd0faa0bb4)"><g transform="matrix(1, 0, 0, 1, 107, 204)"><g clip-path="url(#f4b9df3e69)"><g clip-path="url(#764296394c)"><path fill="#4d433a" d="M 0.46875 12.640625 C 0.792969 14.097656 2.164062 15.121094 3.578125 14.457031 C 5.148438 13.722656 5.375 11.289062 5.386719 9.972656 C 5.402344 7.632812 5.160156 5.902344 4.878906 3.613281 C 4.789062 2.902344 4.648438 1.578125 4.503906 0.925781 C 4.5 2.769531 4.789062 4.558594 4.441406 6.394531 C 3.929688 8.117188 4.5 11.269531 2.851562 12.425781 C 2.03125 12.996094 0.558594 11.863281 0.46875 12.640625 Z M 0.46875 12.640625 " fill-opacity="1" fill-rule="nonzero"/></g></g></g></g><g clip-path="url(#580c537b0a)"><path fill="#b7b095" d="M 78.398438 187.523438 C 76.90625 187.523438 75.40625 187.613281 73.9375 187.785156 C 73.828125 187.8125 73.621094 187.851562 73.378906 187.890625 C 71.894531 188.148438 69.195312 188.617188 69.007812 190.519531 C 68.933594 193.933594 68.894531 195.84375 68.859375 199.101562 C 68.890625 199.085938 68.921875 199.070312 68.953125 199.054688 C 69.011719 199.023438 69.046875 199.007812 69.078125 198.992188 C 70.613281 198.300781 73.582031 198.15625 75.800781 198.15625 C 76.234375 198.15625 76.496094 198.160156 76.496094 198.160156 L 76.910156 198.171875 L 76.910156 198.175781 C 83.308594 198.285156 88.375 199.878906 93.277344 201.421875 C 98.308594 203.003906 103.511719 204.640625 110.101562 204.640625 C 110.988281 204.640625 111.890625 204.609375 112.789062 204.550781 C 114.8125 204.3125 117.757812 203.402344 117.929688 202.140625 L 117.957031 198.890625 C 117.976562 196.9375 117.996094 194.929688 118.03125 192.808594 C 117.132812 193.226562 115.515625 193.4375 113.203125 193.4375 C 112.027344 193.4375 111.050781 193.382812 110.777344 193.363281 L 110.382812 193.335938 L 110.382812 193.277344 C 105.011719 192.976562 100.113281 191.671875 95.375 190.414062 C 90.023438 188.992188 84.492188 187.523438 78.398438 187.523438 " fill-opacity="1" fill-rule="nonzero"/></g><path fill="#b7b095" d="M 114.628906 189.773438 L 114.59375 188.101562 C 114.269531 188.085938 113.960938 188.074219 113.675781 188.074219 C 111.773438 188.074219 111.234375 188.511719 111.195312 188.628906 C 111.191406 188.667969 111.195312 188.71875 111.199219 188.773438 C 111.214844 188.882812 111.519531 189.316406 114.628906 189.773438 " fill-opacity="1" fill-rule="nonzero"/><path fill="#b7b095" d="M 72.652344 202.011719 L 72.625 203.574219 C 75.011719 203.558594 75.691406 203.113281 75.875 202.917969 C 75.90625 202.882812 75.921875 202.855469 75.929688 202.839844 C 75.929688 202.816406 75.925781 202.796875 75.917969 202.769531 C 75.859375 202.632812 75.472656 202.253906 72.652344 202.011719 " fill-opacity="1" fill-rule="nonzero"/><g clip-path="url(#f70b877956)"><path fill="#b7b095" d="M 113.203125 192.609375 C 116.476562 192.609375 117.859375 192.171875 118.066406 191.765625 C 117.976562 191.636719 117.570312 191.101562 115.234375 190.707031 C 115.105469 190.683594 114.964844 190.660156 114.820312 190.640625 L 114.703125 190.621094 C 113.363281 190.429688 112.386719 190.230469 111.714844 190.015625 C 111.515625 189.949219 111.34375 189.882812 111.191406 189.8125 L 111.207031 192.558594 C 111.613281 192.578125 112.355469 192.609375 113.203125 192.609375 " fill-opacity="1" fill-rule="nonzero"/></g><g clip-path="url(#d8d12a2044)"><path fill="#b7b095" d="M 71.222656 199.316406 C 70.207031 199.488281 69.058594 199.679688 68.863281 200.230469 L 68.875 200.25 C 68.945312 200.359375 69.425781 200.902344 72.058594 201.128906 L 72.289062 201.148438 C 74.148438 201.289062 75.316406 201.484375 75.972656 201.777344 L 76.058594 198.996094 C 74.574219 199.003906 73.078125 199.089844 71.574219 199.253906 L 71.222656 199.316406 " fill-opacity="1" fill-rule="nonzero"/></g><g fill="#b7b095" fill-opacity="1"><g transform="translate(124.629588, 192.754188)"><g><path d="M 0 4.578125 C 0 7.203125 0.265625 16.75 4.140625 16.75 C 6.59375 16.75 8.8125 12.390625 9.765625 10.515625 L 15.875 -0.65625 C 16.40625 -1.65625 19.1875 -6.453125 19.1875 -7.15625 C 19.1875 -7.5 18.9375 -7.765625 18.578125 -7.765625 C 17.84375 -7.765625 15.578125 -3.140625 15.140625 -2.3125 C 14.921875 -1.875 14.78125 -1.703125 14.578125 -1.359375 L 7.59375 11.296875 C 6.375 13.5625 5.28125 15.09375 4.359375 15.09375 C 3.671875 15.09375 3.046875 14.09375 2.578125 11.828125 C 1.703125 7.546875 2.21875 6.328125 2.21875 3.265625 C 2.21875 0.828125 2.796875 -2.96875 3.140625 -5.359375 C 4.359375 -14.828125 6.890625 -24.25 10.078125 -33.25 C 10.59375 -34.59375 10.078125 -35.203125 9.46875 -35.203125 C 9.078125 -35.203125 8.6875 -34.984375 8.421875 -34.640625 C 6.9375 -32.546875 3.625 -20.03125 2.921875 -17.015625 C 1.4375 -10.734375 0 -2.1875 0 4.578125 Z M 0 4.578125 "/></g></g></g><g fill="#b7b095" fill-opacity="1"><g transform="translate(141.731259, 192.754188)"><g><path d="M 5.9375 -19.984375 C 5.9375 -18.890625 4.890625 -16.140625 4.359375 -15.09375 C 3.921875 -14.21875 3.1875 -13.3125 4.0625 -13.3125 C 5.140625 -13.3125 7.421875 -19.375 7.421875 -20.546875 C 7.421875 -20.890625 7.109375 -21.46875 6.453125 -21.46875 C 5.71875 -21.46875 4.921875 -20.234375 5.9375 -19.984375 Z M 5.9375 -19.984375 "/></g></g></g><g fill="#b7b095" fill-opacity="1"><g transform="translate(150.849241, 192.754188)"><g><path d="M 8.375 12.828125 C 7.71875 12.34375 7.671875 11.515625 8.03125 10.734375 C 8.25 10.34375 8.15625 10.25 8.59375 10.171875 C 8.46875 10.46875 8.375 12.34375 8.375 12.828125 Z M 11.859375 -27.703125 L 8.078125 -25.90625 C 6.8125 -25.265625 -1.75 -20.71875 -1.75 -19.453125 C -1.75 -18.984375 -1.484375 -18.796875 -1.140625 -18.796875 C -0.875 -18.796875 -0.5625 -18.9375 -0.3125 -19.0625 C 0.046875 -19.28125 0.09375 -19.375 0.390625 -19.59375 C 0.734375 -19.8125 0.953125 -19.984375 1.265625 -20.15625 C 2.359375 -20.890625 3.453125 -21.546875 4.578125 -22.203125 L 9.765625 -24.90625 C 10.375 -25.125 11 -25.4375 11.5625 -25.734375 L 10.34375 -13.53125 C 10.171875 -12.078125 10.03125 -10.78125 10.03125 -9.296875 L 6.8125 -7.765625 C 6.234375 -7.5 4.1875 -6.328125 4.1875 -5.671875 C 4.1875 -5.234375 4.359375 -5.109375 4.625 -5.109375 C 5.1875 -5.109375 6.0625 -5.765625 6.109375 -5.765625 L 9.765625 -7.640625 L 9.203125 0.125 C 9.15625 0.609375 9.203125 1.046875 9.203125 1.484375 C 9.15625 2.09375 9.078125 2 9.078125 2.703125 C 9.03125 3.40625 8.8125 7.453125 8.6875 7.890625 C 8.328125 8.984375 6.546875 8.71875 6.546875 12.125 C 6.546875 12.953125 7.640625 14.53125 8.546875 14.53125 C 9.15625 14.53125 9.734375 13.875 9.90625 11.90625 C 9.984375 10.734375 9.90625 8.765625 10.59375 8.28125 C 10.90625 8.109375 11.390625 7.890625 11.859375 7.671875 C 12.390625 7.375 12.6875 7.234375 13.265625 7.03125 C 18.625 4.671875 25.734375 4.015625 31.625 4.015625 C 33.203125 4.015625 34.59375 4.09375 35.546875 4.28125 C 37.4375 4.578125 37.171875 5.0625 37.609375 5.359375 C 38.046875 4.796875 38.078125 5.234375 38.078125 4.3125 C 38.078125 3.046875 35.296875 2.65625 31.9375 2.65625 C 27.171875 2.65625 21.328125 3.40625 20.28125 3.625 C 17.671875 4.015625 15 4.75 12.65625 5.796875 C 12 6.0625 11.03125 6.765625 10.34375 6.8125 L 11.734375 -8.46875 C 12.265625 -8.5 12.6875 -8.71875 13.125 -8.90625 C 15.484375 -9.8125 21.15625 -11.5625 23.390625 -11.5625 C 23.78125 -11.5625 23.859375 -11.34375 23.90625 -11 C 24.296875 -11.03125 24.296875 -11.078125 24.609375 -11.125 C 24.859375 -12.265625 24.734375 -12.875 23.25 -12.875 C 22.8125 -12.875 22.34375 -12.828125 21.71875 -12.734375 C 20.109375 -12.5625 16.578125 -11.5625 15.046875 -11.078125 C 14.171875 -10.8125 12.515625 -10.078125 11.859375 -9.984375 C 11.859375 -10.859375 12.078125 -11.90625 12.125 -12.6875 L 13.53125 -26.390625 C 14.046875 -27.359375 25.6875 -30.9375 26.921875 -31.28125 C 32.71875 -32.671875 34.8125 -32.84375 40.75 -32.84375 C 41.75 -32.84375 42.234375 -32.625 42.96875 -32.5 C 42.84375 -31.71875 42.015625 -30.890625 41.703125 -30.0625 C 42.890625 -30.1875 44.359375 -30.96875 44.359375 -32.625 C 44.359375 -34.078125 42.046875 -34.5 39.171875 -34.5 C 35.078125 -34.5 29.703125 -33.59375 28.3125 -33.25 C 24.125 -32.453125 19.375 -30.796875 15.484375 -29.234375 C 14.96875 -29.046875 14.140625 -28.625 13.65625 -28.53125 C 13.875 -31.0625 14.046875 -32.71875 14.046875 -35.515625 C 14.046875 -36.25 13.703125 -36.421875 13.21875 -36.6875 C 12.296875 -36.171875 12.609375 -36.171875 12.484375 -34.9375 C 12.4375 -34.203125 12.265625 -33.15625 12.265625 -32.5 C 12.265625 -30.890625 11.859375 -29.359375 11.859375 -27.703125 Z M 11.859375 -27.703125 "/></g></g></g><g fill="#b7b095" fill-opacity="1"><g transform="translate(190.331425, 192.754188)"><g><path d="M 1.21875 -2.265625 C 2.921875 -2.265625 4.671875 -7.859375 6.109375 -8.8125 C 6.5 -7.984375 5.890625 -6.234375 6.765625 -3.625 C 7.15625 -2.4375 7.890625 -1.265625 9.25 -1.265625 C 9.515625 -1.265625 9.765625 -1.3125 10.078125 -1.390625 C 11.078125 -1.65625 12.484375 -3.40625 13.09375 -4.1875 C 13.34375 -4.53125 15.921875 -7.765625 14.21875 -7.765625 C 13.4375 -7.765625 11.125 -2.578125 9.375 -2.578125 C 7.765625 -2.578125 7.671875 -6.453125 7.671875 -7.546875 L 7.421875 -9.984375 C 7.203125 -10.46875 6.890625 -10.6875 6.59375 -10.6875 C 5.546875 -10.6875 4.234375 -8.46875 3.96875 -7.984375 L 1.875 -4.796875 C 1.875 -8.203125 4.71875 -12.296875 2.796875 -12.296875 C 1.140625 -12.296875 -1.578125 -2.265625 1.21875 -2.265625 Z M 1.21875 -2.265625 "/></g></g></g><g fill="#b7b095" fill-opacity="1"><g transform="translate(203.419443, 192.754188)"><g><path d="M -12.265625 -19.453125 C -12.265625 -18.84375 -11.828125 -18.71875 -11.34375 -18.71875 C -11.078125 -18.71875 -10.8125 -18.765625 -10.59375 -18.796875 C -10.203125 -19.625 -10.640625 -19.453125 -9.546875 -19.890625 C -9.03125 -20.109375 -8.640625 -20.421875 -8.109375 -20.640625 C -5.40625 -21.6875 -2.921875 -22.421875 -0.046875 -23.125 C 0.390625 -23.25 1.390625 -23.421875 1.65625 -23.515625 L 1.265625 -19.453125 C 1.21875 -18.890625 1.171875 -17.9375 1.09375 -17.359375 C 0.875 -16.09375 0.828125 -10.203125 0.828125 -8.546875 L 0.703125 -6.5 C 0.703125 -3.3125 0.5625 1.875 0.828125 5.015625 C 0.828125 6.0625 0.875 7.640625 2 7.640625 C 3.140625 7.640625 2.484375 4.625 2.484375 3.625 C 2.40625 1.703125 2.4375 -7.03125 2.578125 -8.328125 C 2.65625 -9.25 2.578125 -11.21875 2.578125 -12.484375 C 2.578125 -13.09375 2.703125 -13.09375 2.703125 -13.65625 C 2.703125 -14.09375 2.65625 -14.609375 2.703125 -15 L 3.578125 -23.953125 C 4.625 -24.171875 11.25 -25.4375 13.65625 -25.4375 C 13.953125 -25.4375 14.171875 -25.4375 14.359375 -25.390625 C 14.875 -25.265625 14.75 -25.4375 14.875 -25 C 16.53125 -25 16.015625 -26.75 13.953125 -26.75 C 11.296875 -26.75 8.71875 -26.3125 6.1875 -25.828125 C 5.546875 -25.734375 4.625 -25.484375 3.921875 -25.484375 C 3.921875 -26.875 4.796875 -25.734375 4.796875 -26.875 C 4.796875 -27.140625 4.75 -27.3125 4.75 -27.4375 C 4.71875 -27.875 4.796875 -27.53125 4.796875 -28.046875 C 4.796875 -28.75 4.453125 -29.3125 3.96875 -29.3125 C 3.40625 -29.3125 2.703125 -28.53125 2.265625 -26.171875 C 1.96875 -24.6875 2.09375 -25.078125 0.265625 -24.609375 C -2.21875 -23.90625 -12.265625 -21.421875 -12.265625 -19.453125 Z M -12.265625 -19.453125 "/></g></g></g><g fill="#b7b095" fill-opacity="1"><g transform="translate(208.48014, 192.754188)"><g><path d="M 0.609375 -0.171875 C 1.96875 -0.171875 1.4375 -1.65625 1.703125 -2.796875 C 1.875 -3.84375 2.265625 -4.71875 2.703125 -5.453125 C 3.40625 -6.59375 3.625 -6.59375 5.28125 -6.59375 C 5.765625 -6.59375 6.40625 -6.546875 6.984375 -6.546875 C 7.859375 -6.546875 8.546875 -6.625 8.546875 -7.234375 C 8.546875 -7.8125 7.203125 -7.890625 5.9375 -7.890625 C 5.1875 -7.890625 4.453125 -7.859375 4.0625 -7.859375 C 2.703125 -7.859375 2.4375 -7.03125 1.78125 -6.59375 C 1.78125 -7.15625 1.875 -7.109375 1.875 -7.71875 C 1.875 -8.15625 1.875 -8.6875 1.921875 -9.125 C 2.046875 -10.34375 2.265625 -11.171875 1.09375 -11.171875 C 0.125 -11.171875 0.046875 -6.625 0.046875 -5.84375 C 0.09375 -4.75 0.046875 -3.671875 0.09375 -2.625 C 0.09375 -2.3125 -0.265625 -0.171875 0.609375 -0.171875 Z M 0.609375 -0.171875 "/></g></g></g><g fill="#b7b095" fill-opacity="1"><g transform="translate(215.591296, 192.754188)"><g><path d="M 2 -7.890625 C 2.3125 -8.984375 3.75 -10.6875 4.921875 -10.90625 C 4.796875 -9.515625 3.09375 -8.46875 2 -7.890625 Z M 0.046875 -6.84375 C 0.046875 -5.625 0 -4.53125 1.046875 -3.484375 C 1.78125 -2.75 2.65625 -2.4375 3.578125 -2.4375 C 6.234375 -2.4375 9.25 -5.109375 10.859375 -6.71875 C 11.25 -7.203125 11.25 -7.234375 11.125 -7.890625 C 9.8125 -7.890625 10.515625 -7.71875 8.71875 -6.328125 C 8.421875 -6.109375 8.28125 -5.9375 7.9375 -5.671875 C 7.0625 -5.015625 5.234375 -3.75 3.703125 -3.75 C 3.1875 -3.75 2.65625 -3.921875 2.265625 -4.3125 C 1.53125 -5.0625 1.609375 -5.765625 1.609375 -6.671875 C 2.96875 -6.765625 4.53125 -8.03125 5.234375 -8.8125 C 6.59375 -10.515625 6.59375 -12.265625 4.671875 -12.265625 C 2.578125 -12.265625 0.046875 -9.03125 0.046875 -6.84375 Z M 0.046875 -6.84375 "/></g></g></g><g fill="#b7b095" fill-opacity="1"><g transform="translate(225.058289, 192.754188)"><g/></g></g><g fill="#b7b095" fill-opacity="1"><g transform="translate(236.35761, 192.754188)"><g><path d="M 1.359375 -37.78125 C 1.359375 -34.59375 1.609375 -30.5 1.609375 -27.140625 C 1.609375 -18.359375 0.875 -9.953125 0.875 -1.046875 L 1.171875 5.234375 C 1.171875 8.5 3.015625 20.421875 6.28125 20.421875 C 8.375 20.421875 9.328125 17.84375 9.984375 15.828125 C 12 9.90625 13.703125 3.1875 15.703125 -2.75 L 17.578125 -8.9375 C 18.625 -12.78125 20.28125 -17.671875 21.328125 -21.421875 C 21.859375 -23.34375 22.203125 -24.171875 22.90625 -25.875 C 23.125 -26.4375 23.03125 -27 22.203125 -27 C 20.890625 -27 18.453125 -17.40625 17.96875 -15.921875 C 17.359375 -14 16.796875 -12.046875 16.1875 -10.078125 L 9.90625 10.375 C 9.25 12.4375 7.984375 17.671875 6.59375 18.625 C 4.921875 18.109375 3.96875 11.734375 3.796875 10.296875 C 2.3125 -0.09375 3.875 -14.046875 3.875 -24.859375 C 3.875 -26.78125 3.875 -31.625 3.671875 -33.203125 C 3.40625 -35.03125 3.671875 -38.265625 2.09375 -38.265625 C 1.75 -38.265625 1.609375 -38 1.359375 -37.78125 Z M 1.359375 -37.78125 "/></g></g></g><g fill="#b7b095" fill-opacity="1"><g transform="translate(255.509739, 192.754188)"><g><path d="M 2 -7.890625 C 2.3125 -8.984375 3.75 -10.6875 4.921875 -10.90625 C 4.796875 -9.515625 3.09375 -8.46875 2 -7.890625 Z M 0.046875 -6.84375 C 0.046875 -5.625 0 -4.53125 1.046875 -3.484375 C 1.78125 -2.75 2.65625 -2.4375 3.578125 -2.4375 C 6.234375 -2.4375 9.25 -5.109375 10.859375 -6.71875 C 11.25 -7.203125 11.25 -7.234375 11.125 -7.890625 C 9.8125 -7.890625 10.515625 -7.71875 8.71875 -6.328125 C 8.421875 -6.109375 8.28125 -5.9375 7.9375 -5.671875 C 7.0625 -5.015625 5.234375 -3.75 3.703125 -3.75 C 3.1875 -3.75 2.65625 -3.921875 2.265625 -4.3125 C 1.53125 -5.0625 1.609375 -5.765625 1.609375 -6.671875 C 2.96875 -6.765625 4.53125 -8.03125 5.234375 -8.8125 C 6.59375 -10.515625 6.59375 -12.265625 4.671875 -12.265625 C 2.578125 -12.265625 0.046875 -9.03125 0.046875 -6.84375 Z M 0.046875 -6.84375 "/></g></g></g><g fill="#b7b095" fill-opacity="1"><g transform="translate(264.976731, 192.754188)"><g><path d="M 1.265625 17.5 C 0.5625 17.5 -0.125 17.234375 -0.484375 16.796875 C -2.21875 14.921875 -0.484375 11.390625 0.5625 9.90625 C 1.65625 8.25 2.703125 6.890625 4.09375 5.5 C 4.453125 5.1875 4.625 4.84375 4.890625 4.625 L 9.15625 0.828125 C 9.515625 0.5625 9.765625 0.390625 10.125 0.171875 C 9.90625 2.875 7.890625 10.59375 6.59375 13 C 5.546875 14.875 3.75 17.5 1.265625 17.5 Z M 2.265625 -3.84375 C 2.265625 -8.03125 4.84375 -10.953125 2.921875 -10.953125 C 1.484375 -10.953125 0.4375 -6.59375 0.4375 -4.71875 C 0.4375 -3.1875 1.140625 -2.21875 2.09375 -2.21875 C 2.578125 -2.21875 3.09375 -2.484375 3.625 -2.96875 C 4.796875 -4.0625 6.15625 -6.28125 7.03125 -7.671875 C 7.71875 -8.6875 11 -14.390625 11.390625 -14.65625 C 11.390625 -9.640625 11 -6.671875 10.46875 -2.21875 C 10.421875 -1.4375 10.03125 -1.4375 9.25 -0.734375 C 8.90625 -0.484375 8.71875 -0.390625 8.421875 -0.125 C 4.625 2.578125 -2.4375 9.8125 -2.4375 14.609375 C -2.4375 17.234375 -0.78125 18.765625 1.359375 18.765625 C 4.234375 18.765625 6.71875 16.140625 7.984375 13.734375 C 10.125 10.25 11.5625 3.625 12.171875 -0.703125 C 12.265625 -1.3125 12.171875 -1.390625 12.609375 -1.703125 C 14.3125 -2.875 16.09375 -4.015625 17.890625 -5.015625 C 18.40625 -5.328125 21.203125 -6.765625 21.203125 -7.421875 C 21.203125 -7.765625 21.03125 -7.890625 20.8125 -7.890625 C 20.15625 -7.890625 18.984375 -6.984375 18.71875 -6.8125 L 12.484375 -3.1875 C 12.484375 -4.40625 12.875 -7.234375 12.875 -9.421875 L 12.875 -12.78125 C 12.875 -13.65625 12.90625 -16.890625 12 -16.890625 C 11.078125 -16.890625 11.078125 -16.578125 10.375 -15.4375 C 8.859375 -12.875 4.5 -4.96875 2.265625 -3.84375 Z M 2.265625 -3.84375 "/></g></g></g><g fill="#b7b095" fill-opacity="1"><g transform="translate(284.608751, 192.754188)"><g><path d="M 0.09375 -3.359375 C 0.09375 -0.53125 0.171875 4.84375 2.53125 4.84375 C 3.625 4.84375 4.453125 3.1875 4.921875 2.4375 C 5.890625 0.828125 7.0625 -2.21875 7.984375 -4.09375 C 8.203125 -4.53125 9.546875 -7.0625 9.546875 -7.328125 C 9.546875 -7.546875 9.375 -7.8125 9.15625 -7.8125 C 8.9375 -7.8125 8.6875 -7.640625 8.421875 -7.109375 C 7.03125 -4.625 5.765625 -1.578125 4.453125 0.953125 C 3.96875 1.96875 3.359375 3.140625 2.40625 3.671875 C 0.4375 -0.09375 2.875 -13.65625 4.09375 -18.0625 C 4.234375 -18.5 5.359375 -21.03125 3.921875 -21.03125 C 2.796875 -21.03125 2.40625 -18.84375 2 -17.578125 C 0.921875 -13.5625 0.09375 -7.671875 0.09375 -3.359375 Z M 0.09375 -3.359375 "/></g></g></g><g fill="#b7b095" fill-opacity="1"><g transform="translate(292.287061, 192.754188)"><g><path d="M 2 -7.890625 C 2.3125 -8.984375 3.75 -10.6875 4.921875 -10.90625 C 4.796875 -9.515625 3.09375 -8.46875 2 -7.890625 Z M 0.046875 -6.84375 C 0.046875 -5.625 0 -4.53125 1.046875 -3.484375 C 1.78125 -2.75 2.65625 -2.4375 3.578125 -2.4375 C 6.234375 -2.4375 9.25 -5.109375 10.859375 -6.71875 C 11.25 -7.203125 11.25 -7.234375 11.125 -7.890625 C 9.8125 -7.890625 10.515625 -7.71875 8.71875 -6.328125 C 8.421875 -6.109375 8.28125 -5.9375 7.9375 -5.671875 C 7.0625 -5.015625 5.234375 -3.75 3.703125 -3.75 C 3.1875 -3.75 2.65625 -3.921875 2.265625 -4.3125 C 1.53125 -5.0625 1.609375 -5.765625 1.609375 -6.671875 C 2.96875 -6.765625 4.53125 -8.03125 5.234375 -8.8125 C 6.59375 -10.515625 6.59375 -12.265625 4.671875 -12.265625 C 2.578125 -12.265625 0.046875 -9.03125 0.046875 -6.84375 Z M 0.046875 -6.84375 "/></g></g></g></svg>