<svg xmlns="http://www.w3.org/2000/svg" viewBox="200 225 200 20" width="200" height="20" preserveAspectRatio="xMidYMid meet">
    <defs>
        <clipPath id="feb5d7781a">
            <path d="M 286 225.914062 L 307 225.914062 L 307 246.148438 L 286 246.148438 Z" clip-rule="nonzero"/>
        </clipPath>
        <clipPath id="644d216736">
            <path d="M 314 235 L 391.476562 235 L 391.476562 237 L 314 237 Z" clip-rule="nonzero"/>
        </clipPath>
        <clipPath id="18794d4cb5">
            <path d="M 201.898438 235 L 279 235 L 279 237 L 201.898438 237 Z" clip-rule="nonzero"/>
        </clipPath>
    </defs>
    <g clip-path="url(#feb5d7781a)">
        <path fill="#b7b095" d="M 306.265625 236.191406 C 300.875 236.410156 296.648438 240.855469 296.503906 246.390625 C 296.429688 240.855469 292.128906 236.410156 286.808594 236.191406 C 286.664062 236.191406 286.519531 236.191406 286.445312 236.191406 C 286.589844 236.191406 286.738281 236.191406 286.808594 236.191406 C 292.203125 235.972656 296.503906 231.453125 296.503906 225.914062 C 296.503906 226.058594 296.503906 226.277344 296.503906 226.425781 C 296.503906 226.933594 296.574219 227.519531 296.722656 228.027344 C 296.792969 228.246094 297.230469 229.777344 297.230469 229.777344 C 297.230469 229.777344 297.304688 229.851562 297.304688 229.921875 C 297.304688 229.921875 297.886719 231.089844 297.886719 231.089844 C 297.886719 231.089844 298.6875 232.253906 298.6875 232.253906 C 298.6875 232.253906 298.980469 232.617188 298.980469 232.617188 C 298.980469 232.617188 299.050781 232.691406 299.050781 232.691406 C 299.050781 232.691406 299.636719 233.273438 299.636719 233.273438 C 299.636719 233.273438 300.144531 233.785156 300.144531 233.785156 C 300.144531 233.785156 300.292969 233.929688 300.363281 233.929688 C 300.363281 233.929688 300.511719 234.003906 300.511719 234.003906 C 300.511719 234.003906 300.582031 234.078125 300.65625 234.078125 C 300.65625 234.078125 300.730469 234.078125 300.730469 234.148438 C 300.730469 234.148438 301.457031 234.660156 301.457031 234.660156 C 301.457031 234.660156 301.53125 234.660156 301.53125 234.734375 C 301.53125 234.734375 301.75 234.878906 301.820312 234.878906 C 302.476562 235.242188 303.132812 235.460938 303.789062 235.679688 C 303.863281 235.679688 303.863281 235.679688 303.933594 235.753906 C 304.300781 235.824219 304.664062 235.898438 305.027344 235.972656 C 305.101562 235.972656 305.101562 235.972656 305.175781 235.972656 C 305.175781 235.972656 305.246094 235.972656 305.246094 235.972656 C 305.394531 235.972656 305.613281 236.042969 305.757812 236.042969 C 305.976562 236.191406 306.121094 236.191406 306.265625 236.191406 Z M 306.265625 236.191406 " fill-opacity="1" fill-rule="nonzero"/>
    </g>
    <g clip-path="url(#644d216736)">
        <path fill="#b7b095" d="M 314.867188 236.191406 C 314.867188 236.191406 316.03125 236.117188 318.144531 236.042969 C 320.257812 235.972656 323.246094 235.824219 326.816406 235.753906 C 330.390625 235.679688 334.617188 235.605469 339.132812 235.535156 C 341.394531 235.535156 343.726562 235.460938 346.058594 235.460938 C 348.390625 235.460938 350.792969 235.460938 353.199219 235.460938 C 355.605469 235.460938 358.007812 235.460938 360.339844 235.460938 C 362.671875 235.460938 365.003906 235.535156 367.261719 235.535156 C 371.78125 235.605469 375.9375 235.679688 379.578125 235.753906 C 383.148438 235.824219 386.210938 235.972656 388.25 236.042969 C 390.363281 236.117188 391.53125 236.191406 391.53125 236.191406 C 391.53125 236.191406 390.363281 236.261719 388.25 236.335938 C 386.136719 236.410156 383.148438 236.554688 379.578125 236.628906 C 376.007812 236.699219 371.78125 236.773438 367.261719 236.847656 C 365.003906 236.847656 362.671875 236.917969 360.339844 236.917969 C 358.007812 236.917969 355.605469 236.917969 353.199219 236.917969 C 350.792969 236.917969 348.390625 236.917969 346.058594 236.917969 C 343.726562 236.917969 341.394531 236.847656 339.132812 236.847656 C 334.617188 236.773438 330.460938 236.699219 326.816406 236.628906 C 323.246094 236.554688 320.1875 236.410156 318.144531 236.335938 C 316.105469 236.261719 314.867188 236.191406 314.867188 236.191406 Z M 314.867188 236"/>
    </g>
    <g clip-path="url(#18794d4cb5)">
        <path fill="#b7b095" d="M 201.910156 236.191406 C 201.910156 236.191406 203.078125 236.117188 205.191406 236.042969 C 207.304688 235.972656 210.292969 235.824219 213.863281 235.753906 C 217.433594 235.679688 221.660156 235.605469 226.179688 235.535156 C 228.4375 235.535156 230.769531 235.460938 233.101562 235.460938 C 235.433594 235.460938 237.835938 235.460938 240.242188 235.460938 C 242.648438 235.460938 245.050781 235.460938 247.382812 235.460938 C 249.714844 235.460938 252.046875 235.535156 254.308594 235.535156 C 258.824219 235.605469 262.980469 235.679688 266.625 235.753906 C 270.195312 235.824219 273.253906 235.972656 275.296875 236.042969 C 277.410156 236.117188 278.574219 236.191406 278.574219 236.191406 C 278.574219 236.191406 277.410156 236.261719 275.296875 236.335938 C 273.183594 236.410156 270.195312 236.554688 266.625 236.628906 C 263.050781 236.699219 258.824219 236.773438 254.308594 236.847656 C 252.195312 236.847656 249.863281 236.847656 247.53125 236.847656 C 245.199219 236.847656 242.792969 236.847656 240.386719 236.847656 C 237.984375 236.847656 235.578125 236.847656 233.246094 236.847656 C 230.914062 236.847656 228.582031 236.773438 226.324219 236.773438 C 221.804688 236.699219 217.652344 236.628906 214.007812 236.554688 C 210.4375 236.480469 207.375 236.335938 205.335938 236.261719 C 203.078125 236.261719 201.910156 236.191406 201.910156 236.191406 Z M 201.910156 236.191406 " fill-opacity="1" fill-rule="nonzero"/>
    </g>
</svg>
